<svg width="200" height="200" viewBox="0 0 200 200" fill="none" xmlns="http://www.w3.org/2000/svg">
<rect width="200" height="200" rx="42" fill="#7724EB"/>
<path d="M104.626 78.9478C119.402 78.9478 133.154 81.9179 144.659 87.0255C149.478 83.1327 154 76.9657 154 69.6274C154 50.7783 145.345 38 117.216 38H43V101C56.0226 87.2368 78.7605 78.9478 104.626 78.9478Z" fill="white"/>
<path d="M135.341 161.82C135.381 161.82 141.492 163.043 151.373 158.622C163.375 153.253 167 142.642 167 132.467C167 127.138 165.252 122.071 162.095 117.456C152.659 103.669 130.615 94 104.933 94C71.6783 94 44.5834 109.843 43 130.203V162H75.2666C75.0838 161.857 74.904 161.714 74.7336 161.571C70.0143 157.675 67.1728 153.188 67.1728 147.946C67.1728 135.019 84.0823 124.546 104.94 124.546C114.009 124.546 122.326 126.523 128.837 129.824C128.889 129.849 128.933 129.877 128.985 129.899C137.352 134.19 142.7 140.68 142.7 147.94C142.7 152.697 140.404 157.131 136.466 160.823" fill="white"/>
</svg>
