<svg xmlns="http://www.w3.org/2000/svg" viewBox="0 0 48 48">
  <rect width="48" height="48" rx="10" fill="#fff"/>
  <path fill="#1a73e8" d="M10 18h28v20H10z"/>
  <path fill="#ea4335" d="M10 10h28v8H10z"/>
  <path fill="#34a853" d="M10 30h28v8H10z"/>
  <path fill="#fbbc04" d="M10 18h8v20h-8z"/>
  <path fill="#fff" d="M21.5 33.5c-1.6 0-2.9-.5-3.9-1.4l1.5-2c.7.6 1.5.9 2.4.9 1.2 0 2-.6 2-1.6s-.8-1.5-2.1-1.5h-1v-2.2h1c1.1 0 1.8-.5 1.8-1.4s-.7-1.4-1.8-1.4c-.8 0-1.4.3-2.1.8l-1.4-1.9c1-.9 2.2-1.3 3.7-1.3 2.7 0 4.5 1.3 4.5 3.4 0 1.2-.7 2.2-1.9 2.7v.1c1.4.4 2.3 1.4 2.3 2.9 0 2.4-2.1 3.9-5 3.9Zm8.2-.2V22.8h-2.4v-2.2h5.2v12.7z"/>
</svg>
