<svg width="1280" height="720" viewBox="0 0 1280 720" fill="none" xmlns="http://www.w3.org/2000/svg">
  <rect width="1280" height="720" fill="#030712"/>
  <rect x="72" y="72" width="1136" height="576" rx="24" fill="#111827" stroke="#1F2937"/>
  <rect x="112" y="116" width="760" height="44" rx="12" fill="#1E293B"/>
  <rect x="896" y="116" width="272" height="44" rx="12" fill="#0EA5E9"/>
  <rect x="112" y="184" width="724" height="420" rx="18" fill="#1E293B"/>
  <rect x="856" y="184" width="312" height="130" rx="16" fill="#0F172A" stroke="#334155"/>
  <rect x="856" y="332" width="312" height="130" rx="16" fill="#0F172A" stroke="#334155"/>
  <rect x="856" y="480" width="312" height="124" rx="16" fill="#0F172A" stroke="#334155"/>
  <path d="M180 500C250 420 320 390 390 420C460 450 530 410 600 360C670 310 740 300 808 340" stroke="#0EA5E9" stroke-width="8" stroke-linecap="round"/>
  <text x="132" y="145" fill="#FFFFFF" font-size="22" font-family="Arial, sans-serif">Insurance Activity & Contracts</text>
</svg>
